# xmcd CD database file
#
# Track frame offsets:
#	150
#	21565
#	40302
#	61705
#
# Disc length: 1069 seconds
#
# Revision: 2
# Processed by: cddbd v1.5.2PL0 Copyright (c) Steve Scherf et al.
# Submitted via: CDex 1.70beta2
#
DISCID=2e042b04
DTITLE=雀が原中学卓球部 (花守ゆみり、田中美海、高野麻里佳、桑原由気、今村彩夏、東城日沙子) - 灼熱の卓球娘オープニングテーマ
DYEAR=2016
DGENRE=Anime
TTITLE0=灼熱スイッチ
TTITLE1=V字上昇Victory
TTITLE2=灼熱スイッチ(Instrumental)
TTITLE3=V字上昇Victory(Instrumental)
EXTD=YEAR: 2016
EXTT0=
EXTT1=
EXTT2=
EXTT3=
PLAYORDER=
